<svg version="1.1" xmlns="http://www.w3.org/2000/svg" viewBox="0 0 799.1111111111105 882.0707070707067">
  <!-- svg-source:excalidraw -->
  <defs>
    <style>
      @font-face {
        font-family: "Virgil";
        src: url("https://excalidraw.com/FG_Virgil.woff2");
      }
      @font-face {
        font-family: "Cascadia";
        src: url("https://excalidraw.com/Cascadia.woff2");
      }
    </style>
  </defs>
  <g transform="translate(10 415.7373737373736) rotate(0 389.55555555555526 47.44444444444446)"><path d="M0.12711550891399384 -0.007269212603569031 C226.10421001894596 -3.363258503589363, 453.13625753190763 -3.2515451895329663, 779.5680082476797 0.48167932331562047 M-0.11898480504751206 -0.31552444845438005 C227.86409542825473 1.1756420084105588, 456.3405243554046 1.4050674863921262, 779.3593895754875 -0.1502460613846779 M778.137678979999 -0.5424008890986443 C779.9662058771397 34.45014669870338, 780.1022477567936 68.25562916199368, 780.3292518845858 95.76216530882652 M779.4692559643747 0.010211911052465439 C780.6058005094937 37.72056455148592, 780.5272414684705 75.20187895339399, 779.9883395834925 95.58447923221524 M779.7149148142995 95.49744552009638 C479.4556284661091 96.51841132060026, 180.75500605834833 97.20397107020354, 0.08382336795330048 94.72668336265619 M778.9050654730859 95.25989579343135 C489.2544688704938 93.16346250612209, 198.95942799299937 93.23531046945521, -0.116782246530056 94.49306663655575 M-1.0588265135884285 96.27425146185692 C1.4875636084791688 73.62086499987379, 0.27272963364091196 55.87269856962894, -1.716756172478199 -1.5372016951441765 M0.7161839939653873 95.80646159210141 C-0.5394290110882787 57.286519163019136, -0.09989875767793932 21.143739667286468, -0.9370270036160946 0.7695084474980831" stroke="#000000" stroke-width="1" fill="none"></path></g><g transform="translate(337.94444444444446 233.959595959596) rotate(0 63.5 46)"><path d="M1.311788983643055 1.3660294339060783 C30.067282377555966 1.0869256323203444, 60.20114033445716 2.796476728282869, 128.02113694697618 -0.6984325125813484 M0.9050850532948971 -0.639392402023077 C50.461937873438 -1.5234669316932559, 101.20235011130572 -1.8970203269645571, 127.26125511154532 -0.9545105956494808 M126.53961343318224 0.6800331398844719 C128.65385763183235 33.91002803444862, 125.19579045310617 68.68438785821199, 126.00305838137865 92.63112752884626 M127.66542324051261 0.6452427841722965 C127.00342188119889 33.20325677022338, 125.6066715502739 65.58997940495611, 126.31611463055015 92.16933128610253 M128.54710859805346 92.47913663834333 C91.96517398767173 94.03689985278994, 57.79138909652829 91.15289931301028, 0.08032435923814774 93.33714478462934 M127.14157792553306 92.10804340615869 C79.90730103217065 91.7036988202855, 33.494034728407854 92.45785386007279, -0.7761243917047977 91.69948801770806 M1.3354951813817024 93.68790047615767 C1.4097120098769667 65.48170242607593, -0.034637517482042246 37.813521648943414, 0.38696808367967606 -0.6636326983571053 M0.8309856317937374 92.50743231549859 C-0.1283532264828683 56.54976532384753, 0.06483937472105017 20.334137059003112, 0.6030683182179928 0.7107887007296085" stroke="#000000" stroke-width="1" fill="none"></path></g><g transform="translate(645.0555555555553 235.95959595959607) rotate(0 63.5 46)"><path d="M1.3660294339060783 -0.3931959196925163 C27.987647004053 -1.5528022646531463, 57.64508458152414 0.1881509423628449, 126.30156748741865 1.9641851857304573 M-0.639392402023077 -0.11063805595040321 C45.00308872573078 -1.0922597651556134, 90.24222283810377 -0.888202906139195, 126.04548940435052 0.8190374039113522 M127.68003313988447 1.879695363342762 C126.36174617990851 23.76325086951256, 126.00096188768744 49.68630375117064, 127.63112752884626 93.15694493800402 M127.6452427841723 0.5144347809255123 C127.21762735128402 21.607555452734232, 126.68240327119827 44.29585663601756, 127.16933128610253 91.79051145538688 M127.47913663834333 92.40466947108507 C93.51355890221893 94.65279402311891, 55.34307851716876 93.0627383190021, 1.337144784629345 93.31589884310961 M127.10804340615869 91.36325868591666 C90.32812390960753 91.58575400132686, 54.55037497580051 91.40367957372219, -0.3005119822919369 91.98610278591514 M1.6879004761576653 92.64388460665941 C0.7684287710487842 71.25780911147595, 0.5723936243355273 52.503516148030755, -0.6636326983571053 1.7860176041722298 M0.5074323154985905 92.26530143246055 C-0.0585955545306206 60.92194744423031, -0.45854284018278124 29.529975139349695, 0.7107887007296085 0.48137291893363" stroke="#000000" stroke-width="1" fill="none"></path></g><g transform="translate(367.1666666666664 446.84848484848493) rotate(0 36 17)"><text x="36" y="13" font-family="Helvetica, Segoe UI Emoji" font-size="16px" fill="#000000" text-anchor="middle" style="white-space: pre;" direction="ltr">valist core</text><text x="36" y="30" font-family="Helvetica, Segoe UI Emoji" font-size="16px" fill="#000000" text-anchor="middle" style="white-space: pre;" direction="ltr">library</text></g><g transform="translate(352.94444444444446 261.29292929292933) rotate(0 46 17)"><text x="46" y="13" font-family="Helvetica, Segoe UI Emoji" font-size="16px" fill="#000000" text-anchor="middle" style="white-space: pre;" direction="ltr">valistd</text><text x="46" y="30" font-family="Helvetica, Segoe UI Emoji" font-size="16px" fill="#000000" text-anchor="middle" style="white-space: pre;" direction="ltr">(REST relay)</text></g><g transform="translate(654.5555555555553 255.29292929292933) rotate(0 53 25.5)"><text x="53" y="13" font-family="Helvetica, Segoe UI Emoji" font-size="16px" fill="#000000" text-anchor="middle" style="white-space: pre;" direction="ltr">Web UI</text><text x="53" y="30" font-family="Helvetica, Segoe UI Emoji" font-size="16px" fill="#000000" text-anchor="middle" style="white-space: pre;" direction="ltr">(fetch, register,</text><text x="53" y="47" font-family="Helvetica, Segoe UI Emoji" font-size="16px" fill="#000000" text-anchor="middle" style="white-space: pre;" direction="ltr">publish)</text></g><g transform="translate(20.3888888888888 229.95959595959602) rotate(0 68.5 49.5)"><path d="M1.6716326996684074 -0.6179543063044548 C32.02245028503239 -1.059277237392962, 65.0030820183456 -0.8230771431699395, 137.0282904431224 1.6079799607396126 M-0.9966866038739681 0.9409443996846676 C33.211808482185006 0.1779943578317762, 65.56956885755062 0.695157753713429, 136.79446885362267 0.8060332201421261 M135.57173412293196 0.17784804850816727 C137.25806207884102 29.924074208363887, 137.89189906347542 59.86189735308289, 135.74887984246016 98.1788753941655 M137.12276837602258 0.15227898582816124 C136.76781680520625 28.160438374802467, 136.040763043724 53.74436909556388, 136.26277408376336 98.36779734119771 M135.12710135430098 100.3094734624028 C84.54074335508048 97.8108397212997, 29.921601847559216 98.02315981063991, 1.9301549717783928 97.51064271479844 M136.76304015889764 98.71151014789938 C101.45011990480124 98.47762146513908, 65.27792001813648 98.26368287127464, 0.9605142809450626 99.98485549911855 M1.613857440650463 97.51251763850449 C2.32604117821902 69.5036027703434, 0.8253109021112321 38.45044504329561, -1.9095736220479012 -1.0283098742365837 M-0.05572965368628502 98.87388690933584 C0.4121778616681695 76.02399170435964, 0.8489653477445245 54.14513150304555, 0.09923729673027992 0.2835504673421383" stroke="#000000" stroke-width="1" fill="none"></path></g><g transform="translate(33.8888888888888 254.60721500721496) rotate(0 53 25.5)"><text x="53" y="13" font-family="Helvetica, Segoe UI Emoji" font-size="16px" fill="#000000" text-anchor="middle" style="white-space: pre;" direction="ltr">CLI</text><text x="53" y="30" font-family="Helvetica, Segoe UI Emoji" font-size="16px" fill="#000000" text-anchor="middle" style="white-space: pre;" direction="ltr">(fetch, register,</text><text x="53" y="47" font-family="Helvetica, Segoe UI Emoji" font-size="16px" fill="#000000" text-anchor="middle" style="white-space: pre;" direction="ltr">publish)</text></g><g transform="translate(324.28282828282806 10) rotate(0 72.5 70)"><path d="M100.27607644093787 5.085994732730583 C110.2585750057583 7.717124990727735, 120.23072858008028 15.899259443748395, 127.22260519115942 23.74891306365066 C134.21448180223854 31.598566683552928, 139.47162295286364 42.10497212836933, 142.22733610741267 52.18391645214418 C144.9830492619617 62.26286077591903, 146.1759419190264 73.79456258429423, 143.75688411845363 84.22257900629977 C141.33782631788085 94.65059542830531, 134.6175464415608 106.40261223145284, 127.71298930397596 114.7520149841774 C120.80843216639111 123.10141773690198, 112.2186872509575 130.180077371398, 102.32954129294457 134.3189955226472 C92.44039533493164 138.45791367389643, 79.29551541533046 140.0801213761304, 68.37811355589834 139.5855238916727 C57.46071169646621 139.090926407215, 46.187978929646164 136.6236713864492, 36.82513013635183 131.35141061590105 C27.462281343057498 126.07914984535292, 18.33799357574498 116.84844995928384, 12.201020796132354 107.9519592683839 C6.0640480165197275 99.05546857748396, 1.2954299608181827 88.2365771247853, 0.0032934586760688944 77.97246647050146 C-1.288843043466045 67.70835581621762, 0.6468905485802914 55.99627714716838, 4.448201783279671 46.367295342680826 C8.249513017979051 36.738313538193275, 14.807494858861512 27.54464113252083, 22.81116086687235 20.198575643576156 C30.814826874883188 12.852510154631481, 42.16932049555784 5.471271138697812, 52.47019783134469 2.290902409012773 C62.77107516713154 -0.8894663206722662, 74.53543133300937 -0.30469174816385336, 84.61642488159346 1.116363265465921 C94.69741843017755 2.5374182790956956, 106.67789376251585 7.636122795404974, 112.95615912284923 10.817232490791419 C119.23442448318261 13.998342186177863, 123.17165036179135 19.134927713317953, 122.28601704359372 20.203021437784592 M88.80387939790207 1.6732441167569903 C98.86946872931672 2.5634924688688394, 110.10420564226867 8.222071357716693, 118.60529591167827 14.972147518172697 C127.10638618108787 21.7222236786287, 135.59251852360737 32.30031893758097, 139.8104210143597 42.17370107949301 C144.028323505112 52.047083221405046, 144.78533003714332 63.73991368745571, 143.91271085619226 74.21244036964495 C143.0400916752412 84.68496705183419, 139.96180401200758 96.00472843377727, 134.57470592865337 105.00886117262847 C129.18760784529917 114.01299391147967, 120.49614937515473 122.39585766777513, 111.5901223560671 128.2372368027521 C102.68409533697947 134.07861593772907, 91.83269046007408 138.8457963145538, 81.1385438141276 140.0571359824903 C70.44439716818113 141.2684756504268, 57.793315055457406 138.96197210106874, 47.42524248038826 135.50527481037113 C37.05716990531912 132.04857751967353, 26.405443176614273 127.05645376255615, 18.930108363712762 119.31695223830476 C11.45477355081125 111.57745071405338, 5.54116560615382 99.50850585380175, 2.573233602979201 89.06826566486285 C-0.3946984001954186 78.62802547592395, -0.8014294477149708 66.94928913620022, 1.1225163446650441 56.675511104671344 C3.046462137045059 46.40173307314246, 7.725878912453843 35.902921448707396, 14.116908357259291 27.425597475689557 C20.50793780206474 18.948273502671718, 29.694342250753955 10.134336609653612, 39.468693013497735 5.811567266564303 C49.243043776241514 1.4887979234749933, 64.80861032433978 2.00733805195053, 72.76301293372195 1.4889814171536955 C80.71741554310412 0.970624782356861, 84.71471245214757 2.552779984929721, 87.19510866979078 2.7014274577832964 C89.675504887434 2.850074930636872, 87.79599143998335 1.2699246630359842, 87.64539023958127 2.3808662542751478" stroke="#000000" stroke-width="1" fill="none"></path></g><g transform="translate(350.78282828282806 44) rotate(0 46 42.5)"><text x="46" y="13" font-family="Helvetica, Segoe UI Emoji" font-size="16px" fill="#000000" text-anchor="middle" style="white-space: pre;" direction="ltr">HTTP clients</text><text x="46" y="30" font-family="Helvetica, Segoe UI Emoji" font-size="16px" fill="#000000" text-anchor="middle" style="white-space: pre;" direction="ltr"></text><text x="46" y="47" font-family="Helvetica, Segoe UI Emoji" font-size="16px" fill="#000000" text-anchor="middle" style="white-space: pre;" direction="ltr">(curl/wget/</text><text x="46" y="64" font-family="Helvetica, Segoe UI Emoji" font-size="16px" fill="#000000" text-anchor="middle" style="white-space: pre;" direction="ltr">Postman/</text><text x="46" y="81" font-family="Helvetica, Segoe UI Emoji" font-size="16px" fill="#000000" text-anchor="middle" style="white-space: pre;" direction="ltr">etc.)</text></g><g transform="translate(663.5202020202024 53.13131313131316) rotate(0 42 34)"><text x="42" y="13" font-family="Helvetica, Segoe UI Emoji" font-size="16px" fill="#000000" text-anchor="middle" style="white-space: pre;" direction="ltr">Browsers</text><text x="42" y="30" font-family="Helvetica, Segoe UI Emoji" font-size="16px" fill="#000000" text-anchor="middle" style="white-space: pre;" direction="ltr"></text><text x="42" y="47" font-family="Helvetica, Segoe UI Emoji" font-size="16px" fill="#000000" text-anchor="middle" style="white-space: pre;" direction="ltr">(Metamask/</text><text x="42" y="64" font-family="Helvetica, Segoe UI Emoji" font-size="16px" fill="#000000" text-anchor="middle" style="white-space: pre;" direction="ltr">Status)</text></g><g transform="translate(15.186868686868593 11.727272727272748) rotate(0 72.5 70)"><path d="M39.84483376037946 6.888729087417509 C48.88460414598237 1.7918384727550531, 62.81480976932044 0.8098819322736842, 73.68567979109322 0.9751865503873773 C84.556549812866 1.1404911685010706, 95.59986118693274 3.2059353595505486, 105.07005389101614 7.880556796099668 C114.54024659509955 12.555178232648789, 124.06344797777999 20.637093565904323, 130.50683601559368 29.022915169682094 C136.95022405340737 37.408736773459864, 141.81639962242002 47.79894887331759, 143.73038211789827 58.19548641876629 C145.64436461337652 68.592023964215, 145.31716908094023 81.25200400958731, 141.9907309884632 91.4021404423743 C138.6642928959862 101.5522768751613, 131.46846913644254 111.57471013266634, 123.77175356303616 119.09630501548823 C116.07503798962976 126.61789989831011, 105.86574516615043 133.06284932658343, 95.81043754802486 136.5317097393056 C85.7551299298993 140.00057015202776, 74.00442089608336 141.3231624667115, 63.43990785428275 139.90946749182115 C52.87539481248214 138.4957725169308, 41.57085827876246 134.1317322352132, 32.42335929722123 128.0495398899636 C23.275860315680006 121.96734754471399, 14.066599855951239 112.68022087928459, 8.554913965035404 103.41631342032349 C3.043228074119569 94.15240596136239, -0.24659841987291625 82.79726386066187, -0.6467560482737724 72.46609513619697 C-1.0469136766746285 62.13492641173206, 1.5759122288341807 50.88015602175284, 6.1539681946302665 41.42930107353405 C10.732024160426352 31.97844612531526, 20.071292397017874 21.906973109101415, 26.821579746502742 15.76096544688422 C33.57186709598761 9.614957784667027, 42.10652894490054 6.713657735394031, 46.65569229153948 4.553255100230885 C51.20485563817842 2.392852465067739, 53.61213907278506 1.6231991295571102, 54.1165598263364 2.7985496359053457 M73.55641756835409 0.44301021847785194 C83.9065387194402 -0.5041411661863305, 97.49565123513773 3.939772823898486, 106.92592863042475 8.59718142533464 C116.35620602571177 13.254590026770792, 123.75504695984806 20.005022332720586, 130.13808194007618 28.387461827094775 C136.52111692030428 36.769901321468964, 143.5178304541355 48.12798067128433, 145.22413851179346 58.891818391579775 C146.93044656945142 69.65565611187523, 143.77450736070233 82.73164381305477, 140.37593028602404 92.97048814886747 C136.97735321134576 103.20933248468017, 132.55075534117032 113.04340689143206, 124.83267606372377 120.32488440645602 C117.11459678627722 127.60636192147999, 104.3228543289622 133.2750665524369, 94.06745462134472 136.6593532390113 C83.81205491372725 140.0436399255857, 73.72674189641275 142.18799105470063, 63.30027781801892 140.63060452590236 C52.87381373962509 139.07321799710408, 40.6897018850127 133.74893122943118, 31.508670150981743 127.31503406622171 C22.327638416950784 120.88113690301225, 13.237127501696609 111.16946075745693, 8.214087413833155 102.02722154664555 C3.191047325969701 92.88498233583417, 1.796264686772768 82.75380578076815, 1.3704296238010159 72.46159880135346 C0.9445945608292636 62.16939182193878, 1.3194871354134001 49.627680697997924, 5.659077036002643 40.27397967015746 C9.998666936591885 30.920278642316994, 18.481342889254094 23.053079343328843, 27.40796902733647 16.339392634310656 C36.33459516541885 9.625705925292468, 51.55169291137794 2.540229056249944, 59.218833864496915 -0.008140583951671942 C66.88597481761589 -2.5565102241532878, 71.17804840796063 0.9276071080775475, 73.4108147460503 1.0491747931009598 C75.64358108413998 1.170742478124372, 72.3153485402971 -0.2670783484550808, 72.615431893035 0.7212655261888017" stroke="#000000" stroke-width="1" fill="none"></path></g><g transform="translate(633.5202020202024 13.131313131313163) rotate(0 72.5 70)"><path d="M73.68945514853128 0.30004295151591975 C84.03862407568067 -0.6119100824008363, 97.26311878669198 3.699287232084564, 106.75298511099638 8.440555098371334 C116.24285143530078 13.181822964658103, 124.27504451002265 20.306766810543962, 130.62865309435767 28.74765014923654 C136.98226167869268 37.18853348792912, 143.1921861330167 48.45095594608061, 144.8746366170065 59.08585513052681 C146.5570871009963 69.72075431497301, 144.11399705228266 82.40521275408666, 140.72335599829657 92.55704525591372 C137.33271494431048 102.70887775774078, 132.23044122501523 112.66070596822266, 124.53079029308995 119.99685014148918 C116.83113936116469 127.3329943147557, 104.79992342187666 133.21058395976976, 94.525450406745 136.5739102955128 C84.25097739161333 139.93723663125584, 73.42084459410805 141.71931150428634, 62.88395220229996 140.1768081559474 C52.34705981049187 138.6343048076085, 40.39245717043968 133.6159807415741, 31.30409605589648 127.31889020547926 C22.215734941353283 121.02179966938441, 13.417461486712359 111.57125145272187, 8.35378551504077 102.39426493937829 C3.290109543369179 93.21727842603471, 1.3015824871406398 82.61601400498027, 0.9220402258669367 72.25697112541783 C0.5424979645932335 61.8979282458554, 1.6393447458029904 49.6410584805762, 6.07653194739855 40.24000766200366 C10.51371914899411 30.838956843431127, 18.740285724907913 22.482699188952616, 27.545163435440294 15.850666213982635 C36.350041145972675 9.218633239012654, 49.48363323945344 2.815242033280446, 58.905798210592835 0.44780981218377747 C68.32796318173223 -1.919622408912891, 78.33618347563548 1.0163871313087305, 84.07815326227666 1.6460728874026245 C89.82012304891784 2.2757586434965185, 93.34041041914088 3.1939165938512533, 93.35761693043987 4.225924348747142 M47.00342002517076 3.5838800767316883 C56.39180645075762 -0.7309044502991631, 69.57633146288131 0.061530189323913076, 80.2720147306981 1.3649811878325124 C90.9676979985149 2.6684321863411116, 102.35922670775126 6.120095744130836, 111.17751963207152 11.404586067783285 C119.99581255639178 16.689076391435734, 127.79282494305136 24.069543359680992, 133.18177227661968 33.071923129747205 C138.570719610188 42.07430289981342, 142.38797141971133 54.67340241163921, 143.51120363348147 65.41886468818056 C144.6344358472516 76.16432696472192, 143.86388460149828 87.89515591169425, 139.92116555924048 97.54469678899534 C135.97844651698267 107.19423766629643, 128.0257029331657 116.54997463420575, 119.85488937993455 123.31610995198716 C111.68407582670339 130.08224526976858, 101.44430727039483 135.61300616977618, 90.89628423985357 138.14150869568377 C80.34826120931231 140.67001122159135, 67.44006033023419 140.86443981345815, 56.56675119668697 138.4871251074327 C45.693442063139756 136.10981040140723, 34.02091747188014 130.58646327313843, 25.656429438570285 123.87762045953104 C17.29194140526043 117.16877764592365, 10.54201101013415 107.6230265389336, 6.379822996827841 98.23406822578835 C2.217634983521532 88.8451099126431, 0.413355385348068 77.7495513048556, 0.6833013587324359 67.54387058065957 C0.9532473321168038 57.338189856463536, 2.6720329375096243 46.447248468104945, 7.999498837134048 36.999983880612135 C13.326964736758473 27.55271929311932, 26.565668573135284 16.085406792919915, 32.64809675647898 10.860283055702688 C38.73052493982267 5.635159318485461, 42.322602328701 6.297157602213004, 44.494067937196206 5.649241457308776 C46.66553354569141 5.001325312404547, 45.22659476676779 6.168512223125618, 45.6768904074502 6.972786186277318" stroke="#000000" stroke-width="1" fill="none"></path></g><g transform="translate(29.686868686868365 56.22727272727275) rotate(0 58 25.5)"><text x="58" y="13" font-family="Helvetica, Segoe UI Emoji" font-size="16px" fill="#000000" text-anchor="middle" style="white-space: pre;" direction="ltr">Servers,</text><text x="58" y="30" font-family="Helvetica, Segoe UI Emoji" font-size="16px" fill="#000000" text-anchor="middle" style="white-space: pre;" direction="ltr">CI/CD pipelines,</text><text x="58" y="47" font-family="Helvetica, Segoe UI Emoji" font-size="16px" fill="#000000" text-anchor="middle" style="white-space: pre;" direction="ltr">Local Dev</text></g><g transform="translate(101.22222222222206 776.0707070707067) rotate(0 66.5 48)"><path d="M0.8134002014994621 -0.3588734194636345 C40.381053963676095 -0.8011978669837116, 80.49844374880195 2.517460723333061, 133.3474871441722 1.551936335861683 M-0.601429607719183 0.39140578731894493 C49.54923439510167 -0.39623839821666484, 100.21732774972917 0.222762155868113, 132.99212453141809 -0.15674391761422157 M131.59063785523176 0.6799098923802376 C133.5314983519912 28.0844252422452, 133.28111902803184 53.04186570197344, 133.6776346489787 94.10214085131884 M132.951039288193 0.6174803636968136 C133.94796617642044 30.391748311370613, 132.90276666298507 62.48299852833152, 132.3553577400744 96.47347113117576 M134.95868819206953 95.83771938830614 C79.35045222602784 95.43973837632686, 28.00435462668537 93.49623571176082, 0.5915147587656975 97.00892037898302 M132.25967654958367 95.84672495350242 C81.74939815066755 96.31787569221109, 32.56050418168306 95.60616488154977, -0.4103725217282772 96.90800365433097 M0.8811742588877678 95.16265077143908 C0.9432238611578941 64.95447130948304, 1.234058526456356 32.6883771136403, -0.7050619795918465 1.9531831219792366 M-0.49912622198462486 96.67813858017325 C0.013051113039255213 75.50452203974127, 0.5125522221624852 57.230651440471405, -0.9372684024274349 -0.8830535747110844" stroke="#000000" stroke-width="1" fill="none"></path></g><g transform="translate(264.2222222222216 776.0707070707067) rotate(0 66.5 48)"><path d="M-0.3588734194636345 0.8211690708994865 C33.055880608782175 0.8377628292515873, 70.77819841876627 -0.1934239898249508, 134.55193633586168 1.5188683792948723 M0.39140578731894493 -0.45124032720923424 C48.69348595254124 1.0162796833738685, 97.82780717611314 0.7920259096845985, 132.84325608238578 -0.1856471560895443 M133.67990989238024 -0.0695849135518074 C133.9169489660859 34.49086841791868, 131.85660212427376 70.2992999598384, 131.10214085131884 96.4410340115428 M133.6174803636968 0.39463600888848305 C133.1553019915521 33.682738170772794, 134.3295889531076 68.02196109071375, 133.47347113117576 96.92497298493981 M132.83771938830614 94.55259292572737 C101.6794025901705 96.71116367381066, 68.20218473002313 97.89404240649193, 1.0089203789830208 97.59561388939619 M132.84672495350242 95.26023051515222 C81.19813087321818 95.59753872159868, 28.097354023158545 94.604997289218, 0.9080036543309689 96.24439821019769 M-0.8373492285609245 96.31538813561201 C-0.8409980472922325 74.0845800563693, -1.9608694252371788 50.25165253132582, 1.9531831219792366 -1.897518940269947 M0.678138580173254 96.42740354314446 C-1.3697224821150302 63.9833803512156, 0.04831600531935698 29.175682995468378, -0.8830535747110844 0.12089512124657631" stroke="#000000" stroke-width="1" fill="none"></path></g><g transform="translate(212.22222222222206 640.5707070707072) rotate(0 38.5 8.5)"><text x="38.5" y="13" font-family="Helvetica, Segoe UI Emoji" font-size="16px" fill="#000000" text-anchor="middle" style="white-space: pre;" direction="ltr">Powergate</text></g><g transform="translate(149.72222222222206 815.5707070707067) rotate(0 18 8.5)"><text x="18" y="13" font-family="Helvetica, Segoe UI Emoji" font-size="16px" fill="#000000" text-anchor="middle" style="white-space: pre;" direction="ltr">IPFS</text></g><g transform="translate(304.2222222222216 815.5707070707067) rotate(0 27.5 8.5)"><text x="27.5" y="13" font-family="Helvetica, Segoe UI Emoji" font-size="16px" fill="#000000" text-anchor="middle" style="white-space: pre;" direction="ltr">Filecoin</text></g><g><g transform="translate(219.5475528941605 703.7675721964808) rotate(0 -19.94351378860881 32.445910062966846)"><path d="M-0.2462495729327202 0.48686496466398244 C-6.98267515535155 11.077576024880013, -34.120888232936416 53.554107924054065, -41.1101351654529 64.20542842030525 M1.8253306719381364 -0.3031348742265254 C-4.950965739764885 10.34277580879939, -34.214103972691376 54.26713421238276, -41.71235824915575 65.19495500016026" stroke="#000000" stroke-width="1" fill="none"></path></g><g transform="translate(219.5475528941605 703.7675721964808) rotate(0 -19.94351378860881 32.445910062966846)"><path d="M-33.6502522272563 37.18218951448996 C-37.79799485569581 42.43680425438058, -39.239726092578415 51.781424584015895, -40.38209754767822 66.20927602189593 M-33.80753944865823 36.770725221933915 C-35.76307670867192 42.176945755217794, -37.946058533002066 48.72742999535696, -41.342548178313244 64.29688463869505" stroke="#000000" stroke-width="1" fill="none"></path></g><g transform="translate(219.5475528941605 703.7675721964808) rotate(0 -19.94351378860881 32.445910062966846)"><path d="M-16.63464326865735 48.65341674412353 C-24.96963114682674 51.09285346939716, -30.535404798318346 57.6572131714092, -40.38209754767822 66.20927602189593 M-16.79193049005928 48.241952451567485 C-22.313071652647245 51.11680575264681, -28.145935802045784 55.206688693464024, -41.342548178313244 64.29688463869505" stroke="#000000" stroke-width="1" fill="none"></path></g></g><g><g transform="translate(283.7222222222216 701.0707070707072) rotate(0 25.366997851976237 35.3333127428358)"><path d="M0.48865238875150685 0.5394574239850045 C8.875193649530418 12.239323149124775, 43.03521267175678 59.1842117031415, 51.44793954044585 70.88955685943361 M-0.7139438364934176 -0.22293137376196692 C7.428880490856253 11.036840788476782, 42.12193142284643 56.85504555151173, 50.578283496396665 68.92265456105578" stroke="#000000" stroke-width="1" fill="none"></path></g><g transform="translate(283.7222222222216 701.0707070707072) rotate(0 25.366997851976237 35.3333127428358)"><path d="M26.547344347915626 52.48338947216535 C36.06232531657342 58.15307697843874, 45.68948246834226 65.13980492652219, 49.178496480183725 67.80359494621861 M25.952112379006124 52.04101824159289 C36.22305597268989 59.01147012702933, 45.86053192322112 64.68497747707967, 50.04056267087353 68.60068573365915" stroke="#000000" stroke-width="1" fill="none"></path></g><g transform="translate(283.7222222222216 701.0707070707072) rotate(0 25.366997851976237 35.3333127428358)"><path d="M43.106781550604424 40.36295045717725 C46.166118506320956 50.876221594080654, 49.267902506118034 62.63910143491517, 49.178496480183725 67.80359494621861 M42.51154958169492 39.92057922660479 C46.240468909449966 51.58109306605841, 49.359047357043956 62.026012551811036, 50.04056267087353 68.60068573365915" stroke="#000000" stroke-width="1" fill="none"></path></g></g><g transform="translate(514.1666666666655 599.1262626262628) rotate(0 49.5 50.5)"><path d="M57.75217719224242 -0.1902082336157065 C66.08159706854298 0.27170009146879437, 75.78773979157776 5.698834893240728, 82.43384349607373 11.670582305275666 C89.0799472005697 17.642329717310602, 95.14753553476993 26.893121688953322, 97.62879941921824 35.64027623859392 C100.11006330366655 44.38743078823452, 99.8141507306098 55.50737458867364, 97.3214268027636 64.15350960311926 C94.8287028749174 72.79964461756488, 89.0701297287117 81.61391240741669, 82.67245585214107 87.51708632526763 C76.27478197557043 93.42026024311856, 67.53884363924095 97.99247989151509, 58.93538354333977 99.57255311022485 C50.33192344743858 101.1526263289346, 39.15562592200504 99.99498337130643, 31.05169527673392 96.99752563752617 C22.947764631462796 94.0000679037459, 15.361907996091034 88.558982684253, 10.311799671713025 81.5878067075433 C5.2616913473350175 74.61663073083359, 1.4646319540486394 64.23310828181826, 0.7510453304658711 55.170469777267975 C0.03745870688310282 46.10783127271768, 2.2548004184216066 35.14373475302416, 6.030279930216416 27.211975680241554 C9.805759442011226 19.280216607458946, 16.23401309201765 12.253102635508025, 23.403922401234727 7.579915340572327 C30.573831710451802 2.906728045636629, 41.81588484656085 0.05138936016721252, 49.04973578551888 -0.8271480893726348 C56.283586724476905 -1.705685538912482, 62.62225142763564 1.070771152553294, 66.80702803498289 2.308690643333243 C70.99180464233014 3.546610134113192, 74.47976527437527 5.581786120009858, 74.15839542960238 6.60036885530706 M26.718862207906984 7.5670725937612175 C33.57005124546084 2.779599363238492, 44.50937185450704 -1.1755559945934901, 53.24337602052836 -0.875043162139086 C61.97738018654968 -0.5745303296846818, 71.91683729967258 3.8397609679348896, 79.1228872040349 9.370149588487642 C86.32893710839721 14.900538209040395, 93.18763104307445 24.242366694541715, 96.47967544670222 32.30728856117743 C99.77171985032999 40.372210427813144, 100.36294482406488 49.20050474025208, 98.8751536258015 57.75968078830193 C97.38736242753812 66.31885683635178, 93.29538257879054 76.80651901272896, 87.55292825712192 83.66234484947654 C81.8104739354533 90.51817068622412, 73.0658864766183 96.35660089941723, 64.42042769578977 98.89463580878743 C55.77496891496124 101.43267071815762, 44.01190787055482 101.1509847668476, 35.680175572150745 98.89055430569775 C27.348443273746668 96.6301238445479, 20.066155282657917 91.56249753170493, 14.430033905365292 85.33205304188834 C8.793912528072667 79.10160855207175, 3.964844684145087 70.3425633757254, 1.8634473083950027 61.507887366798215 C-0.23795006735508162 52.67321135787102, -0.9250070056366559 41.01546444262895, 1.821649650864785 32.32399698832516 C4.5683063073662264 23.63252953402138, 14.196703903482451 13.658099117281523, 18.343387247403648 9.359082640975515 C22.490070591324844 5.060066164669508, 25.475879158679625 7.140839540129373, 26.70174971439196 6.529898130489123 C27.927620270104292 5.918956720848873, 25.566586000821523 4.824382255855043, 25.69861058167765 5.693434183134016" stroke="#000000" stroke-width="1" fill="none"></path></g><g transform="translate(529.1666666666655 641.1262626262628) rotate(0 34.5 8.5)"><text x="34.5" y="13" font-family="Helvetica, Segoe UI Emoji" font-size="16px" fill="#000000" text-anchor="middle" style="white-space: pre;" direction="ltr">Ethereum</text></g><g transform="translate(202.22222222222206 596.5707070707072) rotate(0 49.5 50.5)"><path d="M58.62726929450062 0.33518062431473794 C67.10616968404962 1.0050419719595034, 76.25534336338062 6.608048292449094, 82.77492237433938 12.613491344437286 C89.29450138529815 18.618934396425477, 95.4301522470285 27.975238199755402, 97.7447433602532 36.367838936243885 C100.05933447347789 44.76043967273237, 99.16769245283382 54.56153647397678, 96.66246905368752 62.96909576336819 C94.15724565454121 71.3766550527596, 89.1499581641388 80.47739063409445, 82.71340296537542 86.81319467259235 C76.27684776661205 93.14899871109024, 66.60548132195771 99.02846046218215, 58.0431378611073 100.98391999435555 C49.48079440025688 102.93937952652894, 39.26560148190333 101.90782047424796, 31.339342200272917 98.54595186563272 C23.413082918642505 95.18408325701748, 15.549022784294184 88.19645452794907, 10.485582171324829 80.81270834266408 C5.422141558355475 73.42896215737909, 1.919830990409268 63.03914090307227, 0.9586985224567925 54.24347475392274 C-0.0024339454956828765 45.44780860477321, 0.8465859053421396 35.9299563690344, 4.718787363609977 28.038711447766893 C8.590988821877813 20.147466526499382, 16.70915920238532 11.628642342943653, 24.191907272063816 6.896005226317683 C31.674655341742312 2.163368109691713, 43.84098309888702 0.531185140901492, 49.61527578168096 -0.35711125198893257 C55.38956846447489 -1.2454076448793572, 56.93590719552723 0.9836913642708455, 58.83766336882744 1.5662268689751357 C60.739419542127656 2.148762373679426, 61.00478622576219 2.341928943835512, 61.02581282148223 3.138101776236809 M59.156496169068134 1.1669977350025675 C67.29989570493224 2.214042958302099, 75.52754873452943 8.47158928288707, 81.97443173821873 14.338950028700815 C88.42131474190802 20.20631077451456, 95.21558707405413 28.277587073913647, 97.83779419120394 36.37116220988504 C100.46000130835375 44.464737345856435, 100.11376732039135 54.09928812133897, 97.70767444111762 62.90040084452919 C95.30158156184389 71.7015135677194, 90.13808693637546 83.17466042730695, 83.40123691556155 89.17783854902635 C76.66438689474765 95.18101667074575, 65.90989076207796 97.48630041538719, 57.286574316234166 98.9194695748456 C48.663257870390375 100.35263873430402, 39.50729220570218 100.96748268219818, 31.6613382404988 97.77685350577687 C23.81538427529542 94.58622432935556, 15.617790762941716 86.84153452005089, 10.210850525013882 79.77569451631771 C4.8039102870860475 72.70985451258454, 0.2072831492346422 64.13292179119715, -0.7803031870682062 55.381813483377805 C-1.7678895233710548 46.630705175558454, -0.03312802780962709 35.29000853886873, 4.285332507196792 27.26904466940162 C8.603793042203211 19.248080799934506, 17.21489053375752 11.779179439235362, 25.130460022970304 7.256030266575124 C33.04602951218309 2.7328810939148855, 46.1995046495463 1.0513903805464602, 51.77874944247351 0.13014963344019037 C57.357994235400724 -0.7910911136660795, 57.609693567771785 1.2209971861575952, 58.60592878053358 1.728585783937504 C59.60216399329538 2.236174381717413, 57.971368301632644 2.626574020935442, 57.756160719044274 3.1756812201196425" stroke="#000000" stroke-width="1" fill="none"></path></g><g transform="translate(500.3888888888881 773.0707070707074) rotate(0 66.5 48)"><path d="M0.6493191197514534 -0.7167704775929451 C35.261941471323375 -1.4334618578478695, 68.63378776088358 0.3221707810834049, 134.79757089167833 -1.4554877951741219 M-0.42638448253273964 -0.005356337875127792 C27.032664776965976 -0.22551085207611332, 54.3754687666893 0.1791645124182104, 132.2830875776708 -0.0795382522046566 M132.9942700341344 -0.5911822989583015 C132.40628827959299 34.13782343119383, 134.97147549539804 68.93658471554518, 132.33997816592455 96.08604734390974 M133.5629881285131 -0.0000485442578792572 C132.4024074278772 35.975716123729946, 133.48182286843658 72.87686912789941, 132.23592683300376 95.42415592446923 M134.32787603884935 97.90427129715681 C101.75240533389152 93.7187594775483, 66.84094372317195 93.50193423073739, 0.12421435862779617 95.95130532234907 M132.42931004986167 96.22541687265038 C82.49407921172678 97.24469663146883, 34.14255427569151 96.87278355602174, -0.26594964042305946 96.34490713849664 M-0.9111421629786491 94.25665085762739 C-0.7615291866660119 76.06134921759367, 1.3837819305062293 57.054455475509165, -1.2781873270869255 0.6195341870188713 M-0.04873219504952431 95.64821276441216 C1.1129791150987147 60.71144588962197, 0.09288436278700829 23.550897429138416, 0.6772384308278561 0.9762944914400578" stroke="#000000" stroke-width="1" fill="none"></path></g><g transform="translate(518.3888888888881 804.0707070707074) rotate(0 50.5 17)"><text x="50.5" y="13" font-family="Helvetica, Segoe UI Emoji" font-size="16px" fill="#000000" text-anchor="middle" style="white-space: pre;" direction="ltr">Valist Registry</text><text x="50.5" y="30" font-family="Helvetica, Segoe UI Emoji" font-size="16px" fill="#000000" text-anchor="middle" style="white-space: pre;" direction="ltr">Contracts</text></g><g><g transform="translate(251.6111111111103 518.8484848484848) rotate(0 0.5643877366456422 34.72837805002928)"><path d="M0.9515162542462348 -0.5588912799954414 C1.0415254826347031 11.00990559309721, 1.2984956180055935 58.548643414676185, 1.1590233400464058 70.01564738005399 M-0.008076441613957375 1.7620868526678533 C-0.11633365713370354 12.96136983233504, -0.13091305149408677 57.19275799560361, 0.29446512994356455 68.42628750580363" stroke="#000000" stroke-width="1" fill="none"></path></g><g transform="translate(251.6111111111103 518.8484848484848) rotate(0 0.5643877366456422 34.72837805002928)"><path d="M-11.3434260185711 40.66682146153752 C-4.814237821917964 48.694233274298476, -4.004264048011468 60.771802779015644, -0.6931981912534684 68.93011000382714 M-11.281818996732673 40.49937262422745 C-6.592193605782696 49.54102412602252, -3.439202089403109 57.018286374411325, -0.1710140390973538 69.28131873163395" stroke="#000000" stroke-width="1" fill="none"></path></g><g transform="translate(251.6111111111103 518.8484848484848) rotate(0 0.5643877366456422 34.72837805002928)"><path d="M9.175201630744686 40.341365205532014 C8.492072145793184 48.64589954262178, 2.0880931834510044 60.83789317397485, -0.6931981912534684 68.93011000382714 M9.236808652583113 40.17391636822194 C7.7526531980104805 49.487456972315414, 4.733844556631665 57.06261324200467, -0.1710140390973538 69.28131873163395" stroke="#000000" stroke-width="1" fill="none"></path></g></g><g><g transform="translate(562.7222222222211 519.9595959595961) rotate(0 0.8902254275465111 34.93071691689548)"><path d="M1.02603747099638 -0.9452375337481498 C1.0295445288221043 10.677284105122089, -0.16968812892834342 57.45099516659975, -0.16099155694246292 69.17655483037234 M0.1055684139300137 1.172908815694973 C0.4753953883020827 13.06412206317298, 1.9001067344316591 59.78884441728704, 1.9414424120355398 70.8066713675391" stroke="#000000" stroke-width="1" fill="none"></path></g><g transform="translate(562.7222222222211 519.9595959595961) rotate(0 0.8902254275465111 34.93071691689548)"><path d="M-10.443269763096005 40.886713017680165 C-5.625056991140493 50.83061133268724, -2.1602912447762668 60.641537474597826, 2.9557593806553633 68.90106361503713 M-8.888085596217543 43.181632407911536 C-5.968310303951954 48.24971475117411, -3.3298160218577726 54.96401201695271, 2.182345405863598 71.43508644173853" stroke="#000000" stroke-width="1" fill="none"></path></g><g transform="translate(562.7222222222211 519.9595959595961) rotate(0 0.8902254275465111 34.93071691689548)"><path d="M10.07402337803105 40.48585824734536 C9.046419226183978 50.71936149327635, 6.667233944199635 60.64446330305907, 2.9557593806553633 68.90106361503713 M11.629207544909512 42.78077763757673 C10.029207844439119 47.92726584671834, 8.145507111364601 54.72991509108134, 2.182345405863598 71.43508644173853" stroke="#000000" stroke-width="1" fill="none"></path></g></g><g><g transform="translate(567.1666666666673 706.6262626262626) rotate(0 0.3062056473307848 29.01173851829435)"><path d="M0.41642671376466756 -1.066099865734577 C0.1269417985013282 8.608417443572364, -0.6155236861451688 49.06045601635616, -0.7994803421311645 59.08957690232326 M-0.8240879908483476 0.9885937594156711 C-0.8229483969559367 10.82879252594412, 1.0008344020818203 47.93173282133791, 1.4364992855097536 57.28218275707107" stroke="#000000" stroke-width="1" fill="none"></path></g><g transform="translate(567.1666666666673 706.6262626262626) rotate(0 0.3062056473307848 29.01173851829435)"><path d="M-11.626065092433857 28.791849408715418 C-4.346931510551065 39.14101984521349, -0.04783342847471772 49.82982272640682, 2.41286789905088 55.57152700077634 M-9.120149908859895 29.8236757073993 C-5.502929826396004 39.8327886329866, -1.386281375314046 48.79462945511258, 1.892158522268701 56.409200348219684" stroke="#000000" stroke-width="1" fill="none"></path></g><g transform="translate(567.1666666666673 706.6262626262626) rotate(0 0.3062056473307848 29.01173851829435)"><path d="M8.35625542548228 27.84947878156399 C8.087878674551503 38.62432064805274, 4.83127979065927 49.66945185868118, 2.41286789905088 55.57152700077634 M10.86217060905624 28.881305080247873 C7.554584128925364 39.238189302531865, 4.7413759164781855 48.526843687888615, 1.892158522268701 56.409200348219684" stroke="#000000" stroke-width="1" fill="none"></path></g></g><g><g transform="translate(385.2777777777776 230.96464646464653) rotate(0 0.13620189806914595 -36.80044615453575)"><path d="M0.7374294832348822 -0.3414147689938545 C0.6977578237652777 -12.132089026272299, 0.40475898534059535 -59.479018624126915, 0.3676858976483346 -71.4340346172452 M-0.33455876740627 -1.5662614680547269 C-0.5530793369095773 -13.652671962203456, -0.44636141630820925 -61.72192661357112, -0.3873244697134941 -73.25947754007764" stroke="#000000" stroke-width="1" fill="none"></path></g><g transform="translate(385.2777777777776 230.96464646464653) rotate(0 0.13620189806914595 -36.80044615453575)"><path d="M9.217986182693485 -44.42463904746154 C7.326696935477003 -54.007759607920974, 2.698373156151159 -65.91445895104364, -0.9545206526201218 -72.38642262590118 M9.260554408107046 -45.613830109464914 C6.493987469103178 -52.41349140531511, 4.144584876671815 -60.14970908077163, -0.3718197854142635 -72.83286173191853" stroke="#000000" stroke-width="1" fill="none"></path></g><g transform="translate(385.2777777777776 230.96464646464653) rotate(0 0.13620189806914595 -36.80044615453575)"><path d="M-11.303126435609284 -44.487402832993766 C-6.002612511371257 -54.17463345174093, -3.4387722331906447 -66.05933557420533, -0.9545206526201218 -72.38642262590118 M-11.260558210195724 -45.67659389499714 C-8.65670030763065 -52.57408447537826, -5.635971711468353 -60.29387761438444, -0.3718197854142635 -72.83286173191853" stroke="#000000" stroke-width="1" fill="none"></path></g></g><g><g transform="translate(411.2777777777776 159.9646464646471) rotate(0 0.7049967225837577 34.51505400282797)"><path d="M-0.3414147689938545 0.3676858976483346 C0.034577640394369835 11.830612809956076, 1.3543147092064223 58.191994769871236, 1.5659653827548028 69.51499095708132 M1.6802037479449066 -0.4848829514253885 C2.008070883449788 10.552948338044807, 1.1742110625871767 56.03886881227605, 0.9150517450738698 67.66278646077029" stroke="#000000" stroke-width="1" fill="none"></path></g><g transform="translate(411.2777777777776 159.9646464646471) rotate(0 0.7049967225837577 34.51505400282797)"><path d="M-8.188827705617552 40.223216056870925 C-5.412593713002304 46.071267058386525, -5.071834275474148 52.50612143038248, 1.7881066592503339 66.89654867286794 M-9.378018767620926 38.78146209199976 C-5.3213109739209425 48.98851846897425, -2.302537685324306 59.032203764915465, 1.3416675532329827 66.83446210931055" stroke="#000000" stroke-width="1" fill="none"></path></g><g transform="translate(411.2777777777776 159.9646464646471) rotate(0 0.7049967225837577 34.51505400282797)"><path d="M12.32858750927447 40.61777313202846 C10.12690498027741 46.311769112093955, 5.492172546360257 52.650943034106, 1.7881066592503339 66.89654867286794 M11.139396447271096 39.17601916715729 C8.078734456060289 49.138233033071224, 3.9823347048383937 59.04509106132656, 1.3416675532329827 66.83446210931055" stroke="#000000" stroke-width="1" fill="none"></path></g></g><g><g transform="translate(695.823232323232 229.14646464646472) rotate(0 0.2665528974315521 -36.38342567235232)"><path d="M0.8060415342450142 -0.369100458920002 C0.7578234270215035 -12.305354245007038, 0.8582556799054144 -60.34007528573275, 0.7517474725842475 -72.39775088578463 M-0.22992538961581888 -1.6084821451921016 C-0.4614792919438333 -13.306901420773938, 0.24522104290314015 -59.375038022520016, 0.19836943206377322 -71.06914484960026" stroke="#000000" stroke-width="1" fill="none"></path></g><g transform="translate(695.823232323232 229.14646464646472) rotate(0 0.2665528974315521 -36.38342567235232)"><path d="M9.662019775720399 -41.559951106798856 C5.899958713041561 -53.395092453324544, 1.4729235175602913 -63.937650449758436, 0.6932076176721602 -72.7350873471517 M9.838158076169055 -43.188050149721114 C6.81829745539096 -50.82173916916556, 5.348570687005558 -57.64167474829744, 0.38350428623147303 -70.42459932056255" stroke="#000000" stroke-width="1" fill="none"></path></g><g transform="translate(695.823232323232 229.14646464646472) rotate(0 0.2665528974315521 -36.38342567235232)"><path d="M-10.858763157638268 -41.69212594485479 C-6.685174846713095 -53.61398641599885, -3.175701280824363 -64.10542517572182, 0.6932076176721602 -72.7350873471517 M-10.682624857189612 -43.320224987777046 C-8.274290628633697 -50.922065724613994, -4.316577410426422 -57.707043037113664, 0.38350428623147303 -70.42459932056255" stroke="#000000" stroke-width="1" fill="none"></path></g></g><g><g transform="translate(719.823232323232 158.1464646464657) rotate(0 0.5416837531793135 35.44644972215407)"><path d="M-0.369100458920002 0.7517474725842475 C-0.13868757834037146 12.14523926526308, 0.49325804760058717 57.72588239461183, 0.602249114215374 69.166992290318 M1.6379830708075316 0.10081095035187904 C1.7438414248793077 11.642753682387994, -0.7489003463617215 59.59804744000547, -0.5546155644487589 70.79208849395626" stroke="#000000" stroke-width="1" fill="none"></path></g><g transform="translate(719.823232323232 158.1464646464657) rotate(0 0.5416837531793135 35.44644972215407)"><path d="M-8.921831302602175 41.71345051915945 C-7.4450073125311915 47.891189038829616, -4.798769177926978 56.25510451748217, -2.2205580620002 70.08178918833845 M-10.549930345524434 41.74454961882533 C-7.272023928428915 53.13031851082506, -3.183143081580236 62.898866733461816, 0.08992996458895508 71.64932067344897" stroke="#000000" stroke-width="1" fill="none"></path></g><g transform="translate(719.823232323232 158.1464646464657) rotate(0 0.5416837531793135 35.44644972215407)"><path d="M11.59412377415127 42.1777668708788 C8.24696959484236 48.183296139504776, 6.072348378937638 56.43810610406324, -2.2205580620002 70.08178918833845 M9.966024731229012 42.20886597054468 C5.91738906180638 53.33875140085446, 2.67979819062338 62.94148718110846, 0.08992996458895508 71.64932067344897" stroke="#000000" stroke-width="1" fill="none"></path></g></g><g><g transform="translate(73.05555555555543 226.92424242424252) rotate(0 0.22475600545294583 -35.53362061232328)"><path d="M0.16672450751066203 0.7587020471692085 C0.012074725329875885 -11.140933601558208, -0.581081373989582 -59.779003851115704, -0.693481095135212 -71.82594327181577 M-1.204883855385706 0.11141667659394439 C-0.9887460620235653 -11.531159939514476, 1.7102320357132705 -57.90940408472904, 1.6543958662915976 -70.19713823829778" stroke="#000000" stroke-width="1" fill="none"></path></g><g transform="translate(73.05555555555543 226.92424242424252) rotate(0 0.22475600545294583 -35.53362061232328)"><path d="M12.329580589845483 -42.86717033105137 C8.44976151336734 -51.646611340816655, 5.947736002182123 -59.18625099556881, 0.545515517788008 -68.96044085507282 M10.78820582823426 -42.56828806640746 C7.819218787937121 -51.02701882370402, 5.982420469847156 -61.44811565981937, 0.6767671323288234 -69.3137553553749" stroke="#000000" stroke-width="1" fill="none"></path></g><g transform="translate(73.05555555555543 226.92424242424252) rotate(0 0.22475600545294583 -35.53362061232328)"><path d="M-8.182400433457635 -43.482505106187865 C-5.510123117017748 -52.0938239912035, -1.4578568778229837 -59.43684277175451, 0.545515517788008 -68.96044085507282 M-9.723775195068859 -43.18362284154396 C-5.908957508332983 -51.45929630542148, -0.9569201821851614 -61.676736232443574, 0.6767671323288234 -69.3137553553749" stroke="#000000" stroke-width="1" fill="none"></path></g></g><g><g transform="translate(99.05555555555543 155.92424242424357) rotate(0 0.43596931038894127 34.53487079077866)"><path d="M0.7587020471692085 -0.693481095135212 C1.0257330651084582 10.694119183719158, 1.0543294822176297 56.80510279387235, 1.1740567281842231 68.49232618063688 M-0.30211810740642253 1.5568373845797034 C-0.14041709386122728 13.089795558033511, 0.10673359142926828 58.80385854887777, 0.317391046853736 69.76322267669254" stroke="#000000" stroke-width="1" fill="none"></path></g><g transform="translate(99.05555555555543 155.92424242424357) rotate(0 0.43596931038894127 34.53487079077866)"><path d="M-11.416397309452753 41.98008796609301 C-8.271713996939539 49.838610715935545, -3.913158530373069 55.35500875465279, 1.5540884300787001 70.38260832893663 M-11.117515044808846 41.32588459215421 C-7.821038667344554 48.75974901953765, -6.505670649844515 52.99510987683951, 1.2007739297766238 69.53836424740963" stroke="#000000" stroke-width="1" fill="none"></path></g><g transform="translate(99.05555555555543 155.92424242424357) rotate(0 0.43596931038894127 34.53487079077866)"><path d="M9.103505350764001 41.748577272887104 C6.824637285458019 49.79803095454002, 5.759319719986061 55.375622490434154, 1.5540884300787001 70.38260832893663 M9.402387615407909 41.094373898948305 C8.220812955336676 48.52194971400018, 5.057897435510018 52.80783569041526, 1.2007739297766238 69.53836424740963" stroke="#000000" stroke-width="1" fill="none"></path></g></g><g><g transform="translate(334.5555555555553 264.51515151515156) rotate(0 -86.9976790761994 -0.9844662596751022)"><path d="M-1.0039753273129464 0.30697527676820746 C-30.01103820097166 0.0350008964957661, -145.02702263055832 -0.3093996820738577, -173.92899364630688 -0.4923008811939553 M0.6697988965082913 -0.5774666482675821 C-28.469892653743734 -0.6882888639019811, -145.34932527610565 -1.880402896539312, -174.6651570489071 -2.275907796118413" stroke="#000000" stroke-width="1" fill="none"></path></g><g transform="translate(334.5555555555553 264.51515151515156) rotate(0 -86.9976790761994 -0.9844662596751022)"><path d="M-145.84674544489988 -11.539355013199938 C-153.94742361910514 -9.512819870415985, -163.20380495602294 -7.576903087495234, -172.72792700579387 -2.2444966773130046 M-146.69863215318927 -12.962650850095642 C-156.02315728224883 -8.07155037621743, -163.35981803508844 -5.260679949383172, -174.1184261990152 -3.0310526641644584" stroke="#000000" stroke-width="1" fill="none"></path></g><g transform="translate(334.5555555555553 264.51515151515156) rotate(0 -86.9976790761994 -0.9844662596751022)"><path d="M-146.08248066775909 8.980499549894386 C-154.30507178188327 4.659166018939047, -163.48850517634432 0.24524185855776004, -172.72792700579387 -2.2444966773130046 M-146.93436737604847 7.557203712998682 C-156.21179076921146 6.038618940427037, -163.47483004638667 2.4410199199241056, -174.1184261990152 -3.0310526641644584" stroke="#000000" stroke-width="1" fill="none"></path></g></g><g><g transform="translate(390.0555555555552 407.51515151515156) rotate(0 0.5790256533483102 -36.360569246113315)"><path d="M0.9538668707013132 0.10771562308073035 C1.215026815235615 -11.84060176163912, 1.1693195417523383 -60.97640007287264, 1.1408417299389837 -72.82885411530734 M-0.004491751519963172 -0.8813376201409847 C0.23575587508268656 -12.59815388363786, 0.7195934322196991 -59.735433322908364, 0.7917381745297463 -71.7265772746224" stroke="#000000" stroke-width="1" fill="none"></path></g><g transform="translate(390.0555555555552 407.51515151515156) rotate(0 0.5790256533483102 -36.360569246113315)"><path d="M10.988504227143236 -41.54700432154713 C7.046488266105898 -49.543079322831716, 7.433435872489931 -58.51679815229506, 1.2618881162721665 -73.1187394262571 M11.426288083088108 -43.282494006635524 C9.36839706876939 -51.34871074518084, 5.99609829391485 -56.82660688121579, 1.1351636533159764 -72.23529078450986" stroke="#000000" stroke-width="1" fill="none"></path></g><g transform="translate(390.0555555555552 407.51515151515156) rotate(0 0.5790256533483102 -36.360569246113315)"><path d="M-9.531942084281281 -41.72388158346463 C-8.048180459087185 -49.836289069911054, -2.2337764804440345 -58.76322560196562, 1.2618881162721665 -73.1187394262571 M-9.09415822833641 -43.45937126855303 C-6.084189469652293 -51.41919145585258, -4.387139307001538 -56.85339202376184, 1.1351636533159764 -72.23529078450986" stroke="#000000" stroke-width="1" fill="none"></path></g></g><g><g transform="translate(416.0555555555552 336.5151515151522) rotate(0 0.5765398031938958 35.23858984631951)"><path d="M0.10771562308073035 1.1408417299389837 C0.32606490502754837 12.612363918125629, -0.14306673953930532 58.4920823648572, 0.171145884692669 69.78299999982119 M-1.2948724041413517 0.6941796928178521 C-0.5974110379846147 11.74511877800338, 1.9407043532499422 56.49650239462964, 2.4479520105291157 68.07150025094859" stroke="#000000" stroke-width="1" fill="none"></path></g><g transform="translate(416.0555555555552 336.5151515151522) rotate(0 0.5765398031938958 35.23858984631951)"><path d="M-7.340515009569634 39.061342739905825 C-5.3198537277080185 47.75356712501597, -4.416828112715661 52.23503987828414, 1.0557898588944226 67.01227869267575 M-9.07600469465803 41.238753837939015 C-7.687457550469884 46.23144318402592, -3.6567772321800547 52.63903435889467, 1.9392385006416588 67.96166447351686" stroke="#000000" stroke-width="1" fill="none"></path></g><g transform="translate(416.0555555555552 336.5151515151522) rotate(0 0.5765398031938958 35.23858984631951)"><path d="M13.153802890755154 38.011135052699885 C10.97968340659839 46.93714024227048, 7.679580269570856 51.63399748148037, 1.0557898588944226 67.01227869267575 M11.418313205666758 40.188546150733075 C8.380813017037841 45.53439220169791, 7.98865495096469 52.16862662925349, 1.9392385006416588 67.96166447351686" stroke="#000000" stroke-width="1" fill="none"></path></g></g><g><g transform="translate(77.05555555555543 405.51515151515156) rotate(0 0.7508784149050598 -36.780861108005055)"><path d="M0.7239457771182061 -0.8133927270770073 C0.6875409290194512 -12.911815302073954, 0.8757889434695243 -60.791909782588476, 0.7196712657809257 -72.74832948893308" stroke="#000000" stroke-width="1.5" fill="none" stroke-dasharray="3 6"></path></g><g transform="translate(77.05555555555543 405.51515151515156) rotate(0 0.7508784149050598 -36.780861108005055)"><path d="M9.720270957673273 -43.393096477710856 C5.949256389231808 -55.53248428861717, 2.360143843628795 -63.98269457525731, 0.2936191052198409 -74.71217193305492" stroke="#000000" stroke-width="1.5" fill="none" stroke-dasharray="3 4"></path></g><g transform="translate(77.05555555555543 405.51515151515156) rotate(0 0.7508784149050598 -36.780861108005055)"><path d="M-10.800819374139595 -43.32342597164114 C-6.81117838708235 -55.61296273396763, -2.6397269904412246 -64.08952066629814, 0.2936191052198409 -74.71217193305492" stroke="#000000" stroke-width="1.5" fill="none" stroke-dasharray="3 4"></path></g></g><g><g transform="translate(103.05555555555543 334.51515151515207) rotate(0 -0.2808611080050696 34.753455488383764)"><path d="M-0.8133927270770073 0.7196712657809257 C-0.7451486354072888 12.063553588092327, 0.04142355074485146 57.222884671390055, 0.2516705110669136 68.78723971098661" stroke="#000000" stroke-width="1.5" fill="none" stroke-dasharray="3 6"></path></g><g transform="translate(103.05555555555543 334.51515151515207) rotate(0 -0.2808611080050696 34.753455488383764)"><path d="M-9.302523284752114 39.533612134858274 C-7.602927843456161 47.967520611924634, -2.3206361862701206 56.49497318594807, -1.712171933054924 68.14861950576305" stroke="#000000" stroke-width="1.5" fill="none" stroke-dasharray="3 4"></path></g><g transform="translate(103.05555555555543 334.51515151515207) rotate(0 -0.2808611080050696 34.753455488383764)"><path d="M11.215526403464024 39.17355744771619 C7.031681266523291 47.57167085406289, 6.428360178220246 56.20240529395166, -1.712171933054924 68.14861950576305" stroke="#000000" stroke-width="1.5" fill="none" stroke-dasharray="3 4"></path></g></g><g><g transform="translate(697.0555555555553 406.51515151515156) rotate(0 0.11767047196633484 -35.5286477163434)"><path d="M0.2879258707165717 0.06970535963773727 C0.09359417706727977 -11.715478785336018, 0.17127710133790963 -59.08304131776094, -0.05258492678403859 -71.12700079232454" stroke="#000000" stroke-width="1.5" fill="none" stroke-dasharray="3 6"></path></g><g transform="translate(697.0555555555553 406.51515151515156) rotate(0 0.11767047196633484 -35.5286477163434)"><path d="M10.530879360351728 -43.09995102570315 C7.855761211214783 -55.78893271851358, 1.9659622773311671 -64.83879146199529, -1.7230788201093674 -71.53772549927234" stroke="#000000" stroke-width="1.5" fill="none" stroke-dasharray="3 4"></path></g><g transform="translate(697.0555555555553 406.51515151515156) rotate(0 0.11767047196633484 -35.5286477163434)"><path d="M-9.98977621866346 -42.9492958124763 C-4.604191774221843 -55.74668932472395, -2.433810255267577 -64.85572299076568, -1.7230788201093674 -71.53772549927234" stroke="#000000" stroke-width="1.5" fill="none" stroke-dasharray="3 4"></path></g></g><g><g transform="translate(723.0555555555553 335.5151515151521) rotate(0 0.9713522836566426 33.946084387600436)"><path d="M0.06970535963773727 -0.05258492678403859 C0.4511878813306491 11.223553045094011, 1.7502920155723891 56.412550361454485, 1.8729992076754571 67.94475370198488" stroke="#000000" stroke-width="1.5" fill="none" stroke-dasharray="3 6"></path></g><g transform="translate(723.0555555555553 335.5151515151521) rotate(0 0.9713522836566426 33.946084387600436)"><path d="M-9.066515914739371 41.43125510590208 C-7.791053175060188 47.067750850374516, -2.918459575395908 53.14189328804758, 1.4622745007276536 69.85242462456226" stroke="#000000" stroke-width="1.5" fill="none" stroke-dasharray="3 4"></path></g><g transform="translate(723.0555555555553 335.5151515151521) rotate(0 0.9713522836566426 33.946084387600436)"><path d="M11.450143721621428 40.99919058344848 C7.282711515483793 46.76224887138318, 6.711373481382649 52.95103617636419, 1.4622745007276536 69.85242462456226" stroke="#000000" stroke-width="1.5" fill="none" stroke-dasharray="3 4"></path></g></g><g><g transform="translate(165.55555555555532 290.51515151515156) rotate(0 84.38094828873875 1.3295503562968207)"><path d="M-0.9751207754015923 1.1450505897402763 C27.33514144370953 1.3792959695061047, 141.44495734324056 0.9692488993207614, 169.73701735287904 0.9646408244967462 M0.7138020881731064 0.7005982040148231 C28.94143068350541 1.0871901563586048, 141.31244107948925 1.7466813596865782, 169.17590599951333 1.958502508578822" stroke="#000000" stroke-width="1" fill="none"></path></g><g transform="translate(165.55555555555532 290.51515151515156) rotate(0 84.38094828873875 1.3295503562968207)"><path d="M142.8250445793543 13.257274211822551 C147.41248482820757 8.970683805399506, 155.85154893596143 7.9565869157276685, 167.20921421495265 3.779369979975745 M141.54164334714153 12.19639406862716 C148.6145523153917 9.166115851813164, 155.82780246617546 5.853834770023122, 169.49070300978607 1.524985384074971" stroke="#000000" stroke-width="1" fill="none"></path></g><g transform="translate(165.55555555555532 290.51515151515156) rotate(0 84.38094828873875 1.3295503562968207)"><path d="M142.9633255332374 -7.263468483402502 C147.43533189868043 -5.607958156766285, 155.83434703003667 -0.6788306414540806, 167.20921421495265 3.779369979975745 M141.6799243010246 -8.324348626597892 C148.7753132704677 -6.1277971547732175, 155.95334525491992 -4.213740775095659, 169.49070300978607 1.524985384074971" stroke="#000000" stroke-width="1" fill="none"></path></g></g><g><g transform="translate(637.6981692881237 268.7202489753535) rotate(0 -84.50030884792562 0.17160178211983634)"><path d="M0.9763244703412057 -0.6414921596646309 C-27.391063423124155 -1.0087664039308852, -141.4213813601295 -1.2309787012015911, -169.97694216619252 -1.2929169469326893 M0.029756087930873143 1.6361205111723396 C-27.96400272637141 1.3481265476749567, -139.60858038292739 0.21499182292879815, -167.61570819480352 -0.027884028004498074" stroke="#000000" stroke-width="1" fill="none"></path></g><g transform="translate(637.6981692881237 268.7202489753535) rotate(0 -84.50030884792562 0.17160178211983634)"><path d="M-140.39764815373388 -11.132956403489471 C-149.13957315548174 -8.349475562200487, -157.6954195243599 -3.163396709420619, -166.37011374546222 -1.938219874249787 M-139.8293871077713 -10.60400674417174 C-145.17893681722663 -7.759114659634546, -150.29537825367376 -5.494210666137127, -168.55989586947493 -0.911128091709704" stroke="#000000" stroke-width="1" fill="none"></path></g><g transform="translate(637.6981692881237 268.7202489753535) rotate(0 -84.50030884792562 0.17160178211983634)"><path d="M-140.59307488291083 9.38732163505969 C-149.4284054573406 5.624295114382308, -157.92192071206202 4.265456604344595, -166.37011374546222 -1.938219874249787 M-140.02481383694825 9.916271294377422 C-145.32328062187526 8.474633153437187, -150.39889383932726 6.452475652697873, -168.55989586947493 -0.911128091709704" stroke="#000000" stroke-width="1" fill="none"></path></g></g><g><g transform="translate(473.72184481777094 295.08412846418116) rotate(0 83.91983265131717 0.6354882943397371)"><path d="M-0.6414921596646309 -0.668039171397686 C27.28691266427438 -0.6721161449948947, 140.24741663982473 0.4819543118278186, 168.48115746229888 0.9518626287579537 M1.2225857271719724 1.5956363182794302 C28.867881794866797 1.6187866817445804, 139.48619150678007 1.6135571137598406, 167.26071966637858 1.9390157600771636" stroke="#000000" stroke-width="1" fill="none"></path></g><g transform="translate(473.72184481777094 295.08412846418116) rotate(0 83.91983265131717 0.6354882943397371)"><path d="M137.9058560813707 11.194537906040452 C147.80581872421945 8.007690406721391, 160.42086401251663 5.847551557031112, 165.3503838201333 0.11738165373913945 M138.43480574068843 12.123542832274936 C147.62797227882032 10.07277381480274, 156.13673977455304 5.28554036692217, 166.37747560267337 2.8648166460823266" stroke="#000000" stroke-width="1" fill="none"></path></g><g transform="translate(473.72184481777094 295.08412846418116) rotate(0 83.91983265131717 0.6354882943397371)"><path d="M138.00792619700425 -9.326416849460902 C148.03648054375003 -4.800105338115024, 160.6131582835896 0.7534604660172608, 165.3503838201333 0.11738165373913945 M138.53687585632198 -8.397411923226418 C147.64414509898037 -4.394956212781263, 156.12280164033362 -3.1284536711359507, 166.37747560267337 2.8648166460823266" stroke="#000000" stroke-width="1" fill="none"></path></g></g></svg>